<?xml version="1.0" encoding="utf-8"?>
<!-- Generator: Adobe Illustrator 24.0.0, SVG Export Plug-In . SVG Version: 6.00 Build 0)  -->
<svg version="1.1" id="Layer_1" xmlns="http://www.w3.org/2000/svg" xmlns:xlink="http://www.w3.org/1999/xlink" x="0px" y="0px"
	 viewBox="0 0 864 864" style="enable-background:new 0 0 864 864;" xml:space="preserve">
<style type="text/css">
	.st0{fill-rule:evenodd;clip-rule:evenodd;fill:#FEFEFE;}
	.st1{fill-rule:evenodd;clip-rule:evenodd;fill:#040404;}
	.st2{fill-rule:evenodd;clip-rule:evenodd;fill:#2976BC;}
	.st3{fill-rule:evenodd;clip-rule:evenodd;fill:#F00A2D;}
	.st4{fill-rule:evenodd;clip-rule:evenodd;fill:#F6B522;}
</style>
<g>
	<path class="st0" d="M433.1,387.3c32.9-6.6,40.3,29.6,13.3,35.5C410.5,430.7,399.6,394,433.1,387.3L433.1,387.3z M316.8,359.8
		c21.9-14.8,31.9,25.7,16.3,35.5C311.2,409.1,300.1,371.1,316.8,359.8L316.8,359.8z M536.5,342.8c23.3-7.1,27.1,34.7,8.8,39.5
		C524.2,387.9,517.7,348.5,536.5,342.8L536.5,342.8z M488.4,240.9c-24.5,4.4-45.8,20.1-68.7-2.1c-16-15.5-13.7-44.6-8.9-70
		c-26,2.5-47.2,6.8-70.6,13.2c-14.4,3.9-16.7-0.8-29-6.3c-8.7-3.9-19.6-7.4-29.7-9.8c-32.5-7.6-41.1-3.4-47.9,25.2
		c-2.7,11.2-3.3,23.9-1.1,35.9c4.7,25.6,5.4,13.3,19.1,15.3c3.4,16.2-37.5,70.3-24.4,115.3l30.1,3.7c-1.5,9.6,1.9,8.8-10.2,10.2
		c-7.2,0.8-8.5-0.8-17.1,1.5c0,8.9,6.3,23.5,8.9,29.9c11.4-0.6,16.7-4,24.2,1.3c-3.6,9.5-6.6,5-15.9,11.8
		c3.6,9.7,10.5,18.2,16.3,22.8c12-1.4,13.8-6.7,26.3-5.1c-0.7,13.4-1.9,9-11.3,15.5c43.5,43.2,194.5,42.3,267.6,15.2
		c26.2-9.7,17-6.1,26.4-26.9c6.2-13.6,17.3-17.7,35.8-17.4c-3.2-7.3-11.9-5.9-9.2-12.4c5.3-12.5,24.7,10.6,29.4-31.1
		c-9-5.6-10.9-0.9-14.1-11c7.4-5.3,2.7-1.3,10.2-3.6c10.8-3.2,5,1.7,8.2-5.4c2.9-6.3,1.4-19.5-0.4-24.2c-8-3-15.6,3.3-28.7,0.8
		c0.4-11.1-0.5-9.8,11.5-13c27.1-7.2,16.1-6,8.1-47.3c-10.5,4.1-39.5,39.9-72.8,11.4c-25.9-22.2-0.2-16.8-30.7-22.9
		c-13.7-2.7-29.3-15.1-30.2-19C489.5,241.4,488.9,241.3,488.4,240.9L488.4,240.9z"/>
	<path class="st1" d="M444.8,676.1l131.1-4.5c3.9,16.5-4.1,40.8-11.8,49.4c-9.2,10.3-31.2,13.5-50.1,14.8
		C459.5,739.7,435.9,735.6,444.8,676.1L444.8,676.1z M295.3,672.7c21.6-1.4,85.2,2.5,119.2,2.7c13,0.1,13.2-1.3,13.8,11.5
		c0.7,16.4,1.9,32.4-8.3,40.8c-15.5,12.8-65.6,10.2-87,5.9C305.1,728,292.3,705.6,295.3,672.7L295.3,672.7z M295,652.4
		c-6.4-39.7,16.8-104.8,37.8-139.3c9.6-15.8,16.5-24.2,38.3-14.4c1,1,10.7,48.7,66.1,46.8c35.4-1.2,57.4-21.6,61.8-51.4
		c25.4-4.2,23.9-3,36.6,16c8.6,12.8,14.8,26.5,21.6,41.1c10.4,22.5,25.4,75.8,19.1,103c-38.4,7-92.2,4.2-132.9,5.7
		c-2.5-7.9-0.6-7.4-8.2-10c-9.7,8.3,2.1,10.6-30.1,10C379.6,659.2,310.4,662.1,295,652.4L295,652.4z M250.9,533.4
		c0.8,1.2,34.3,27.2,39.9,30.9c-0.6,7-7.9,40.7-11.1,44.1C261.3,628.4,183,593.7,250.9,533.4L250.9,533.4z M386.4,499.4l97.4-1.1
		c0.5,19.3-23.5,33.2-46.3,33.8C412,532.7,388.7,519.4,386.4,499.4L386.4,499.4z M298.3,547.5c-8.1-1.4-28-16.2-31.5-25
		c7.2-13.1,44.5-28.3,58.8-27.4L298.3,547.5L298.3,547.5z M538.3,486.1l32.3-13.4c7.7,15,40.6,53.4,42.4,66.1
		c-7.4,6.5-23.9,15.9-37.2,17C568.9,535.5,549.2,500,538.3,486.1L538.3,486.1z M614.8,446.4c28-0.4,47.7,4.2,47.6,34.4
		c-0.1,21.6-20.8,43.2-36.5,47.6c-8-16.9-24.3-36.4-35-52.7c-5-7.6-10.1-20.2-3.6-32.9C595,427.5,609.4,439.4,614.8,446.4
		L614.8,446.4z M568,241.7c0.5-3.2,1.4-8.2,2.5-10.3c4.5-9.1-0.7-2.9,6.1-5.3C581.6,235.2,580.8,242.1,568,241.7L568,241.7z
		 M516.6,188.5c41.9-18.5,57.5,43.5,24.3,57.3c-24.1,10.1-52.4-11.1-40.1-42.7C505.2,192.2,506.7,192.9,516.6,188.5L516.6,188.5z
		 M548.9,258c16.5-12.9,33.9,5.6,41.7-18.1c3.2-9.7-0.2-18.5-5.1-23.2c-9.4-9-13.7-0.8-13.6-18.9c27.7-21.1,76-2.3,50.2,48
		C600.5,287.9,554.6,288.5,548.9,258L548.9,258z M483.8,203c-11.7-5.9-7.8-13.1-2.2-20.7c12.6-1.6,10.7,0.4,11.7,1.8
		C495.5,187,487.5,199.7,483.8,203L483.8,203z M488.4,240.9c0.5,0.4,1.1,0.5,1.3,1.4c0.9,4,16.5,16.3,30.2,19
		c30.5,6.1,4.8,0.7,30.7,22.9c33.3,28.6,62.3-7.3,72.8-11.4c8,41.2,19,40.1-8.1,47.3c-12,3.2-11.1,1.9-11.5,13
		c13.1,2.5,20.7-3.7,28.7-0.8c1.8,4.7,3.3,17.9,0.4,24.2c-3.2,7.1,2.5,2.1-8.2,5.4c-7.5,2.3-2.8-1.7-10.2,3.6
		c3.2,10.1,5.1,5.4,14.1,11c-4.7,41.6-24.1,18.6-29.4,31.1c-2.8,6.5,5.9,5.1,9.2,12.4c-18.5-0.3-29.6,3.8-35.8,17.4
		c-9.4,20.8-0.2,17.2-26.4,26.9C473,491.3,322,492.2,278.5,449c9.3-6.5,10.6-2.1,11.3-15.5c-12.5-1.6-14.3,3.7-26.3,5.1
		c-5.9-4.6-12.7-13.1-16.3-22.8c9.2-6.8,12.3-2.3,15.9-11.8c-7.5-5.3-12.8-1.9-24.2-1.3c-2.6-6.4-8.9-21-8.9-29.9
		c8.5-2.2,9.9-0.6,17.1-1.5c12.2-1.4,8.7-0.6,10.2-10.2l-30.1-3.7c-13.1-45,27.8-99.2,24.4-115.3c-13.7-2-14.4,10.3-19.1-15.3
		c-2.2-12-1.6-24.7,1.1-35.9c6.8-28.6,15.4-32.8,47.9-25.2c10.2,2.4,21.1,5.9,29.7,9.8c12.3,5.6,14.6,10.2,29,6.3
		c23.4-6.4,44.6-10.7,70.6-13.2c-4.9,25.4-7.2,54.5,8.9,70C442.6,261,463.9,245.3,488.4,240.9L488.4,240.9z M483.5,223.4
		c-7.4,9.5-29.3,15.1-44.1,9.5c-14-5.3-18.4-18.5-17.7-37.4c0.9-26.7,20-67,44-69c24-2.1,44.6,33.2,45.3,40
		c1.2,11.7-6.5,6.5-13.5,3.9c-16.5-6.1-31.4,3.8-33.7,18.9C460.2,211,479.7,210.4,483.5,223.4L483.5,223.4z M520.7,149.2
		c9.3-9.3,38.3-19,54.1-19.9c21.2-1.2,26.5,26.8,28,45.6c-37.6,0.6-29.9,13.1-50,2.7C528.2,164.7,531.8,180.3,520.7,149.2
		L520.7,149.2z M417.9,150.6c-44.8,3.9-77.9,18.4-98.8,10.3c-25.6-9.9-77-27.1-92.1,0.6c-17.8,32.6-14.6,63.2-3.2,97.1
		c4,12-6.9,30.7-10.3,44.6c-5.4,22.4-2.5,35-4.2,56.2c-14.6,5-44,2.2-45,19c14.7,3.1,31.8-4.1,47.6-3.5l11.2,34.4
		c-22.2,6-25.2,7.1-26.8,15.8c9.3,5.8,23.2-2.7,34.9-2.2c5.7,10.8,14.7,17.7,17.8,27.4l-29.6,21.4c-2.2,2.4-2.4,1.3-3.3,5.5
		c-2.4,11.9-1.3,1.9,1,6.2c8.2,2.9,29.5-19,44.1-23.7l38.7,23.5c-13.9,9.8-62.7,23.6-83.9,68.1c-9,18.8-9.6,42.2,3.1,57.3
		c14.4,17.1,30.1,19.7,59.5,19.1c0.7,48.5-4.4,98.5,33.2,115.6c33.9,15.4,100.1,15.2,123.3-6.9c24.7,10.7,24.2,18,74.3,15.5
		c66.9-3.4,85.9-25.2,84.2-97.3c-0.3-13.7-1.2-28.6-3-41.8c-1.8-13.7-7-27.7-7.4-40.5c35.7-19.8,63.7-29.5,84.8-60.3
		c18-26.2,10.9-60.7-14.7-75.7c-12.3-7.2-21.6-4-27.4-9c10.2-12.4,30.9,13.1,49.5,6c1-10.7-5.1-10.6-15.8-14.9
		c-8.3-3.3-14.4-5.8-22.1-10.1l9.6-32.6c14.5,0.2,32.6,4.2,41.8-3c-4.1-6.8-5.1-5.7-15.3-7.6c-8.3-1.5-16.8-2.2-23.9-3.7l0.7-33.8
		c15.3-3.8,36.9-0.3,48.8-7.1c-6.8-14.2-35-7.3-51.3-8.1c-1.3-13.1-4.4-26.4-8.7-38.2c-9-24.8-7.1-10.4,1-33.6
		c15.6-44.5-17.5-52.5-21.3-66.5c-6.4-23.2-9.5-58.1-33.6-61.3c-27.2-3.6-55.7,15.2-77.1,20.7c-7.9-11.6-27.1-27.8-52-21.5
		C435.8,117.3,428.4,134.3,417.9,150.6L417.9,150.6z"/>
	<path class="st2" d="M295,652.4c15.5,9.7,84.6,6.9,110,7.4c32.2,0.7,20.4-1.7,30.1-10c7.6,2.6,5.7,2.1,8.2,10
		c40.7-1.5,94.5,1.3,132.9-5.7c6.3-27.2-8.6-80.4-19.1-103c-6.7-14.5-13-28.3-21.6-41.1c-12.7-18.9-11.3-20.2-36.6-16
		c-4.3,29.8-26.3,50.2-61.8,51.4c-55.5,1.9-65.2-45.8-66.1-46.8c-21.7-9.9-28.6-1.4-38.3,14.4C311.8,547.6,288.6,612.6,295,652.4
		L295,652.4z"/>
	<path class="st0" d="M420,727.7c10.2-8.4,9-24.4,8.3-40.8c-0.5-12.8-0.8-11.4-13.8-11.5c-33.9-0.2-97.6-4.1-119.2-2.7
		c-3,32.9,9.8,55.3,37.7,60.9C354.4,737.9,404.5,740.4,420,727.7L420,727.7z"/>
	<path class="st0" d="M444.8,676.1c-8.9,59.5,14.7,63.5,69.2,59.7c18.8-1.3,40.8-4.6,50.1-14.8c7.7-8.6,15.7-32.9,11.8-49.4
		L444.8,676.1L444.8,676.1z"/>
	<path class="st3" d="M483.5,223.4c-3.8-13-23.3-12.4-19.9-34.2c2.3-15,17.2-25,33.7-18.9c7,2.6,14.7,7.9,13.5-3.9
		c-0.7-6.8-21.3-42-45.3-40c-24,2.1-43,42.3-44,69c-0.7,18.8,3.7,32.1,17.7,37.4C454.2,238.5,476,232.9,483.5,223.4L483.5,223.4z"/>
	<path class="st0" d="M614.8,446.4c-5.3-7-19.8-18.9-27.6-3.5c-6.4,12.7-1.3,25.3,3.6,32.9c10.7,16.3,27,35.7,35,52.7
		c15.7-4.4,36.4-26.1,36.5-47.6C662.5,450.6,642.8,446,614.8,446.4L614.8,446.4z"/>
	<path class="st3" d="M571.9,197.9c0,18.1,4.2,9.9,13.6,18.9c4.9,4.7,8.3,13.5,5.1,23.2c-7.7,23.7-25.1,5.2-41.7,18.1
		c5.7,30.5,51.6,29.9,73.1-12.1C647.8,195.6,599.6,176.8,571.9,197.9L571.9,197.9z"/>
	<path class="st0" d="M250.9,533.4c-68,60.3,10.3,95,28.8,75c3.2-3.4,10.5-37.1,11.1-44.1C285.2,560.6,251.8,534.6,250.9,533.4
		L250.9,533.4z"/>
	<path class="st0" d="M520.7,149.2c11.1,31,7.4,15.5,32.2,28.4c20.1,10.4,12.3-2.1,50-2.7c-1.6-18.8-6.8-46.8-28-45.6
		C559,130.2,530,139.9,520.7,149.2L520.7,149.2z"/>
	<path class="st3" d="M516.6,188.5c-9.9,4.4-11.4,3.7-15.8,14.7c-12.3,31.5,15.9,52.8,40.1,42.7C574.1,232,558.5,170.1,516.6,188.5
		L516.6,188.5z"/>
	<path class="st3" d="M538.3,486.1c10.9,13.9,30.6,49.4,37.5,69.7c13.3-1.2,29.8-10.5,37.2-17c-1.8-12.7-34.7-51.1-42.4-66.1
		L538.3,486.1L538.3,486.1z"/>
	<path class="st3" d="M386.4,499.4c2.3,20.1,25.7,33.3,51.1,32.7c22.7-0.6,46.8-14.5,46.3-33.8L386.4,499.4L386.4,499.4z"/>
	<path class="st3" d="M325.5,495.1c-14.3-0.9-51.6,14.3-58.8,27.4c3.6,8.7,23.5,23.5,31.5,25L325.5,495.1L325.5,495.1z"/>
	<path class="st1" d="M424.4,406.6c2.8-9.1,10.2-11.8,19.7-9.4C465.1,402.6,436.5,428.2,424.4,406.6L424.4,406.6z M433.1,387.3
		c-33.5,6.7-22.6,43.4,13.3,35.5C473.4,416.9,466,380.7,433.1,387.3L433.1,387.3z"/>
	<path class="st1" d="M316.8,359.8c-16.7,11.3-5.6,49.2,16.3,35.5C348.7,385.6,338.7,345,316.8,359.8L316.8,359.8z"/>
	<path class="st1" d="M536.5,342.8c-18.7,5.7-12.2,45.1,8.8,39.5C563.6,377.5,559.8,335.7,536.5,342.8L536.5,342.8z"/>
	<path class="st4" d="M424.4,406.6c12.1,21.6,40.7-4,19.7-9.4C434.6,394.8,427.2,397.5,424.4,406.6L424.4,406.6z"/>
	<path class="st3" d="M483.8,203c3.7-3.3,11.8-16,9.5-19c-1-1.3,0.9-3.4-11.7-1.8C476,189.9,472.1,197.1,483.8,203L483.8,203z"/>
	<path class="st3" d="M568,241.7c12.8,0.3,13.7-6.5,8.6-15.6c-6.8,2.4-1.5-3.8-6.1,5.3C569.4,233.5,568.5,238.6,568,241.7L568,241.7
		z"/>
</g>
</svg>
